<svg id="Layer_1" data-name="Layer 1" xmlns="http://www.w3.org/2000/svg" viewBox="0 0 2000 330"><defs><style>.cls-1{fill:#ffc107;}</style></defs><path class="cls-1" d="M19.4,130.57l131.26-63.2a3.52,3.52,0,0,1,5,3.17v29.59a3.5,3.5,0,0,1-2.06,3.2L69.31,141.74a3.53,3.53,0,0,0,0,6.42L153.62,186a3.52,3.52,0,0,1,2.08,3.21v29.91a3.52,3.52,0,0,1-5,3.17L19.41,159.37a3.52,3.52,0,0,1-2-3.17V133.74A3.51,3.51,0,0,1,19.4,130.57Z"/><path class="cls-1" d="M194.43,22.05h38.42a3.52,3.52,0,0,1,3.52,3.51V252.21a3.53,3.53,0,0,1-3.52,3.52H194.43a3.53,3.53,0,0,1-3.52-3.52V25.56A3.52,3.52,0,0,1,194.43,22.05Z"/><path class="cls-1" d="M272.22,92.47h32.33A3.52,3.52,0,0,1,308.07,96h0a3.52,3.52,0,0,0,5.71,2.75C323.56,91.17,336.92,87,352.25,87c38.09,0,64.66,26.89,64.66,65.62v99.56a3.53,3.53,0,0,1-3.52,3.52H378.17a3.53,3.53,0,0,1-3.52-3.52V159.7c0-19.21-12.8-33.62-31-33.62A32.32,32.32,0,0,0,311,158.41v93.8a3.52,3.52,0,0,1-3.52,3.52H272.22a3.52,3.52,0,0,1-3.52-3.52V96A3.52,3.52,0,0,1,272.22,92.47Z"/><path class="cls-1" d="M449.87,92.47h32.34A3.53,3.53,0,0,1,485.73,96h0a3.52,3.52,0,0,0,5.71,2.75C501.22,91.17,514.58,87,529.91,87c38.09,0,64.66,26.89,64.66,65.62v99.56a3.53,3.53,0,0,1-3.52,3.52H555.83a3.53,3.53,0,0,1-3.52-3.52V159.7c0-19.21-12.8-33.62-31-33.62a32.32,32.32,0,0,0-32.65,32.33v93.8a3.52,3.52,0,0,1-3.52,3.52H449.87a3.52,3.52,0,0,1-3.51-3.52V96A3.52,3.52,0,0,1,449.87,92.47Z"/><path class="cls-1" d="M710.45,260.53c-53.14,0-92.2-36.49-92.2-85.79,0-49,38.42-87.07,87.71-87.07,48,0,82.92,36.81,82.92,85.15,0,4-.22,8.78-.66,13.76a3.51,3.51,0,0,1-3.5,3.21H669.25a3.51,3.51,0,0,0-3.37,4.56c5.58,17.22,21.2,28.09,43.61,28.09,15.66,0,27.06-5.38,38.22-17.75a3.53,3.53,0,0,1,4.72-.48L780.48,225a3.52,3.52,0,0,1,.59,5.1C764.39,249.75,739.46,260.53,710.45,260.53Zm29-104.36a3.5,3.5,0,0,0,3.42-4.33c-4.11-16.15-18.1-26.72-37.24-26.72-19.51,0-32.13,10.86-38.11,26.31a3.51,3.51,0,0,0,3.3,4.74Z"/><path class="cls-1" d="M815.43,92.47h32.34A3.53,3.53,0,0,1,851.29,96v1.2a3.52,3.52,0,0,0,5.91,2.57A48.6,48.6,0,0,1,890.35,87a57.61,57.61,0,0,1,18.19,3.18A3.51,3.51,0,0,1,910.61,95l-14.73,33.73a3.5,3.5,0,0,1-4.44,1.9,25.85,25.85,0,0,0-10.06-1.94c-17.93,0-27.21,13.13-27.21,38.42v85.15a3.52,3.52,0,0,1-3.52,3.52H815.43a3.52,3.52,0,0,1-3.51-3.52V96A3.52,3.52,0,0,1,815.43,92.47Z"/><path class="cls-1" d="M944,199.69a3.52,3.52,0,0,1,5-1c16.1,11.51,35.55,18.6,52.72,18.6,21.13,0,35.21-10.25,35.21-25.61,0-12.81-9.92-21.77-35.85-32.34l-9.61-4.16c-41.93-17-59.86-38.09-59.86-69.46,0-41.3,30.73-68.51,77.15-68.51,23.94,0,50.75,7.17,68.75,18a3.52,3.52,0,0,1,1.18,4.83l-19.19,31.89a3.52,3.52,0,0,1-4.69,1.28c-16.13-8.85-30.82-13.4-43.81-13.4-18.56,0-32,9.6-32,23.69,0,11.84,9.92,21.13,37.77,32.65L1028,121c40,16.65,57,37.14,57,67.87,0,43.21-33.29,71.7-82,71.7-27.9,0-57.85-9.39-78.33-24.25a3.53,3.53,0,0,1-.91-4.75Z"/><path class="cls-1" d="M1205,260.53a82.84,82.84,0,0,1-45.46-13.42,3.5,3.5,0,0,0-5.44,2.91v72.62a3.53,3.53,0,0,1-3.52,3.52h-35.22a3.53,3.53,0,0,1-3.52-3.52V96a3.53,3.53,0,0,1,3.52-3.52h32.34a3.53,3.53,0,0,1,3.52,3.52v4.32a3.52,3.52,0,0,0,5.6,2.84A82.14,82.14,0,0,1,1205,87.67c47.37,0,85.15,38.41,85.15,86.43S1252.38,260.53,1205,260.53Zm-5.44-133.81c-25,0-45.46,20.49-45.46,47.38s20.49,47.38,45.46,47.38c25.6,0,46.09-20.49,46.09-47.38S1225.17,126.72,1199.57,126.72Z"/><path class="cls-1" d="M1482.23,255.73h-33a3.52,3.52,0,0,1-3.52-3.52v-3.72a3.53,3.53,0,0,0-5.59-2.85,82.16,82.16,0,0,1-47.55,14.89c-47.06,0-84.83-38.41-84.83-86.43s37.77-86.43,84.83-86.43a82.16,82.16,0,0,1,47.55,14.89,3.53,3.53,0,0,0,5.59-2.85V96a3.52,3.52,0,0,1,3.52-3.52h33a3.52,3.52,0,0,1,3.51,3.52V252.21A3.52,3.52,0,0,1,1482.23,255.73ZM1398,221.48c25.29,0,45.46-20.49,45.46-47.38s-20.17-47.38-45.46-47.38c-25.61,0-45.77,20.49-45.77,47.38S1372.42,221.48,1398,221.48Z"/><path class="cls-1" d="M1518.7,92.47H1551a3.53,3.53,0,0,1,3.52,3.52h0a3.52,3.52,0,0,0,5.71,2.75c9.78-7.57,23.14-11.71,38.47-11.71,38.09,0,64.66,26.89,64.66,65.62v99.56a3.53,3.53,0,0,1-3.52,3.52h-35.22a3.53,3.53,0,0,1-3.52-3.52V159.7c0-19.21-12.8-33.62-31.05-33.62a32.32,32.32,0,0,0-32.65,32.33v93.8a3.52,3.52,0,0,1-3.52,3.52H1518.7a3.52,3.52,0,0,1-3.51-3.52V96A3.52,3.52,0,0,1,1518.7,92.47Z"/><path class="cls-1" d="M1777.73,4.44h28.51A3.52,3.52,0,0,1,1809.61,9L1720.49,306a3.53,3.53,0,0,1-3.37,2.51h-28.19a3.53,3.53,0,0,1-3.38-4.53L1774.36,7A3.53,3.53,0,0,1,1777.73,4.44Z"/><path class="cls-1" d="M1981.51,159.05l-131.25,63.2a3.52,3.52,0,0,1-5-3.17V189.49a3.51,3.51,0,0,1,2.07-3.2l84-38.12a3.51,3.51,0,0,0,0-6.4l-84-38.12a3.51,3.51,0,0,1-2.07-3.2V70.53a3.52,3.52,0,0,1,5-3.17l131.26,62.89a3.52,3.52,0,0,1,2,3.17v22.46A3.51,3.51,0,0,1,1981.51,159.05Z"/></svg>